<?xml version="1.0" standalone="no"?>
<!DOCTYPE svg PUBLIC "-//W3C//DTD SVG 20010904//EN"
 "http://www.w3.org/TR/2001/REC-SVG-20010904/DTD/svg10.dtd">
<svg version="1.0" xmlns="http://www.w3.org/2000/svg"
 width="1280.000000pt" height="1280.000000pt" viewBox="0 0 1280.000000 1280.000000"
 preserveAspectRatio="xMidYMid meet">

<g transform="translate(0.000000,1280.000000) scale(0.100000,-0.100000)"
fill="#000000" stroke="none">
<path d="M6294 10726 c-111 -21 -198 -68 -279 -150 -60 -61 -93 -110 -222
-335 -84 -146 -151 -266 -149 -268 1 -2 27 2 57 7 98 20 497 29 972 23 l468
-6 -138 239 c-161 279 -194 327 -265 382 -132 100 -286 138 -444 108z"/>
<path d="M7245 9513 c-48 -81 -143 -240 -210 -353 -431 -725 -635 -1069 -635
-1074 0 -3 105 -6 233 -6 128 0 271 -5 317 -10 350 -43 504 -188 550 -517 1
-10 176 0 226 12 253 59 424 276 424 534 0 116 -25 195 -103 331 -33 58 -161
281 -285 495 -124 215 -268 464 -320 555 -52 91 -98 169 -102 173 -4 4 -46
-59 -95 -140z"/>
<path d="M5302 9388 c-18 -30 -380 -658 -543 -941 -37 -65 -77 -146 -89 -180
-65 -194 -15 -402 135 -553 113 -115 235 -163 411 -164 l82 0 54 93 c30 50
194 326 365 612 170 286 388 651 483 810 95 160 181 305 192 323 l20 32 -545
0 -545 0 -20 -32z"/>
<path d="M2345 6645 c-65 -14 -173 -52 -192 -67 -6 -5 -23 -40 -37 -76 -22
-58 -115 -309 -476 -1277 -258 -692 -300 -806 -300 -810 0 -3 136 -4 302 -3
l301 3 67 200 67 200 368 0 368 0 67 -200 67 -200 336 -3 c185 -1 337 2 337 6
0 5 -22 67 -49 138 -27 71 -89 239 -139 374 -50 135 -127 342 -170 460 -44
118 -142 382 -217 585 -75 204 -152 400 -172 437 -101 193 -304 283 -528 233z
m206 -1010 l96 -320 -98 -3 c-54 -1 -145 -1 -202 0 l-104 3 89 295 c48 162 93
313 100 335 7 25 13 34 16 25 3 -8 49 -159 103 -335z"/>
<path d="M7665 6654 c-105 -21 -137 -30 -183 -52 l-53 -25 3 -776 3 -776 27
-80 c65 -192 196 -340 388 -439 170 -88 343 -128 560 -127 215 0 367 33 545
121 201 98 335 246 403 445 l27 80 0 705 0 705 -24 53 c-74 163 -315 216 -528
116 l-52 -25 -3 -712 c-3 -712 -3 -712 -25 -767 -47 -113 -139 -190 -262 -215
-205 -43 -381 83 -412 298 -5 34 -9 330 -9 657 0 668 3 637 -75 715 -72 71
-230 119 -330 99z"/>
<path d="M9765 6645 c-82 -7 -165 -14 -182 -14 l-33 -1 0 -1110 0 -1110 320 0
320 0 0 394 0 394 78 7 c101 9 223 -8 290 -41 93 -46 134 -126 157 -309 17
-140 38 -222 76 -297 77 -153 201 -206 403 -173 123 21 252 65 249 85 -1 8
-13 60 -27 115 -14 55 -30 141 -36 190 -37 306 -141 527 -303 646 l-37 27 45
26 c65 39 166 144 202 212 45 85 63 155 69 269 11 182 -31 307 -139 421 -141
150 -358 232 -709 269 -176 18 -526 18 -743 0z m786 -501 c165 -76 195 -271
59 -387 -64 -54 -123 -68 -281 -65 l-134 3 -3 225 c-1 123 0 231 3 238 4 11
36 13 158 10 128 -3 159 -7 198 -24z"/>
<path d="M3730 6385 l0 -245 454 0 453 0 -286 -383 c-157 -210 -379 -509 -493
-664 l-208 -281 0 -201 0 -201 885 0 885 0 0 240 0 240 -499 2 -500 3 90 110
c101 123 705 937 815 1098 88 127 114 194 114 287 0 68 -27 163 -61 219 l-14
21 -817 0 -818 0 0 -245z"/>
<path d="M5586 6622 c-3 -5 -4 -114 -3 -243 l2 -234 263 -3 262 -2 0 -865 0
-865 325 0 325 0 0 865 0 865 260 0 260 0 0 245 0 245 -844 0 c-465 0 -847 -4
-850 -8z"/>
<path d="M3280 3800 l0 -70 70 0 70 0 0 -195 0 -195 80 0 80 0 0 195 0 195 70
0 71 0 -3 68 -3 67 -217 3 -218 2 0 -70z"/>
<path d="M4430 3606 l0 -266 80 0 80 0 0 65 c0 62 1 65 24 65 19 0 32 -14 62
-65 l38 -65 83 0 c96 0 94 -9 25 102 l-35 58 25 20 c39 30 58 80 58 150 0 80
-28 132 -90 168 -42 25 -54 27 -197 31 l-153 3 0 -266z m260 114 c26 -14 34
-57 15 -86 -13 -20 -24 -24 -65 -24 l-50 0 0 60 0 60 41 0 c22 0 49 -4 59 -10z"/>
<path d="M5767 3863 c-3 -4 -29 -69 -57 -143 -29 -74 -74 -190 -101 -258 l-48
-123 81 3 81 3 16 43 15 42 92 0 91 0 13 -45 13 -45 83 0 84 0 -21 53 c-12 28
-50 126 -85 217 -36 91 -73 185 -82 210 l-18 45 -76 3 c-42 2 -78 -1 -81 -5z
m80 -301 c-21 -2 -41 -2 -43 1 -2 2 6 32 18 68 l21 64 22 -65 22 -65 -40 -3z"/>
<path d="M6851 3609 c55 -144 99 -264 99 -266 0 -2 36 -3 81 -1 l81 3 77 205
c43 113 87 231 99 263 l22 57 -78 0 -78 0 -54 -146 c-30 -80 -57 -147 -61
-150 -4 -2 -26 49 -49 114 -24 64 -49 132 -56 150 l-13 32 -84 0 -85 0 99
-261z"/>
<path d="M8000 3605 l0 -265 195 0 195 0 0 65 0 65 -115 0 -115 0 0 35 0 35
100 0 100 0 0 65 0 65 -100 0 -100 0 0 30 0 30 110 0 110 0 0 70 0 70 -190 0
-190 0 0 -265z"/>
<path d="M9130 3605 l0 -265 185 0 185 0 0 70 0 70 -105 0 -105 0 0 195 0 195
-80 0 -80 0 0 -265z"/>
<path d="M2114 3489 c-43 -12 -121 -83 -146 -132 -45 -88 -31 -212 31 -288 36
-44 112 -85 174 -93 101 -15 217 46 266 139 35 67 37 179 4 241 -29 54 -101
117 -151 132 -45 14 -133 14 -178 1z"/>
<path d="M10494 3486 c-46 -20 -112 -83 -137 -130 -32 -61 -31 -174 3 -240 46
-91 129 -140 235 -139 85 0 131 19 189 77 102 101 101 268 -1 370 -55 55 -108
76 -189 76 -38 -1 -83 -7 -100 -14z"/>
<path d="M7803 3100 c-61 -13 -96 -34 -141 -85 -97 -111 -84 -316 26 -403 43
-34 118 -62 166 -62 59 0 137 30 178 68 l39 37 -50 49 -50 49 -31 -27 c-34
-28 -94 -35 -132 -15 -31 17 -61 94 -53 137 14 75 51 112 111 112 31 0 80 -24
92 -45 7 -13 18 -7 61 36 l52 51 -39 37 c-55 52 -149 77 -229 61z"/>
<path d="M3302 2828 l3 -263 78 -3 77 -3 0 71 c0 66 1 70 23 70 16 -1 32 -17
62 -68 l40 -67 83 -3 c45 -2 82 0 82 4 0 3 -21 40 -46 80 l-46 74 35 39 c40
45 52 86 45 166 -6 66 -42 119 -102 146 -34 15 -66 19 -189 19 l-147 0 2 -262z
m263 112 c20 -16 19 -74 -1 -94 -9 -10 -33 -16 -60 -16 l-44 0 0 66 0 67 45
-5 c25 -3 52 -11 60 -18z"/>
<path d="M4010 2825 l0 -265 195 0 195 0 0 70 0 70 -120 0 -120 0 0 35 0 35
100 0 100 0 0 65 0 65 -100 0 -100 0 0 30 0 30 115 0 115 0 0 65 0 65 -190 0
-190 0 0 -265z"/>
<path d="M4670 2825 l0 -265 75 0 74 0 3 120 3 119 88 -119 88 -120 65 0 64 0
0 265 0 265 -75 0 -74 0 -3 -117 -3 -118 -89 118 -88 117 -64 0 -64 0 0 -265z"/>
<path d="M5380 3025 l0 -65 65 0 65 0 2 -197 3 -198 77 -3 78 -3 2 198 3 198
68 3 67 3 0 64 0 65 -215 0 -215 0 0 -65z"/>
<path d="M6515 2834 c-55 -141 -102 -260 -103 -265 -3 -6 30 -9 79 -7 l83 3
14 48 13 48 91 -3 90 -3 17 -45 17 -45 77 -3 c58 -2 77 0 77 10 0 7 -27 83
-61 168 -33 85 -77 199 -97 252 l-37 98 -80 0 -80 0 -100 -256z m218 -46 c-6
-11 -83 -10 -83 1 0 7 20 70 36 111 4 9 14 -8 28 -45 12 -33 21 -63 19 -67z"/>
<path d="M8382 2878 c-45 -117 -91 -237 -102 -265 l-20 -53 80 0 79 0 18 50
18 51 89 -3 88 -3 17 -45 17 -45 82 -3 82 -3 -18 48 c-10 26 -56 146 -103 265
l-84 218 -80 0 -80 0 -83 -212z m186 -27 c11 -33 18 -62 14 -65 -9 -10 -82 -7
-82 4 0 5 6 27 14 47 8 21 17 46 20 56 3 9 7 17 10 17 2 0 13 -27 24 -59z"/>
<path d="M9060 2825 l0 -266 78 3 77 3 3 68 c3 58 5 67 22 67 13 0 32 -22 61
-70 l41 -70 85 0 85 0 -22 38 c-13 20 -35 58 -51 84 l-28 47 26 16 c41 27 66
98 60 166 -6 70 -34 119 -85 151 -34 21 -51 23 -194 26 l-158 4 0 -267z m267
109 c36 -50 1 -104 -69 -104 l-38 0 0 66 0 67 47 -6 c29 -3 52 -12 60 -23z"/>
</g>
</svg>
