<?xml version="1.0" encoding="iso-8859-1"?>
<!-- Generator: Adobe Illustrator 19.0.0, SVG Export Plug-In . SVG Version: 6.00 Build 0)  -->
<svg fill='#0A259A' version="1.1" id="Layer_1" xmlns="http://www.w3.org/2000/svg" xmlns:xlink="http://www.w3.org/1999/xlink" x="0px" y="0px"
	 viewBox="0 0 512 512" style="enable-background:new 0 0 512 512;" xml:space="preserve">
<g>
	<g>
		<path d="M512,119.086c0-22.011-17.907-39.919-39.918-39.919H39.918C17.907,79.167,0,97.074,0,119.086
			c0,11.619,0,261.398,0,273.829c0,22.012,17.907,39.919,39.918,39.919c18.734,0,424.453,0,432.165,0
			c22.011,0,39.918-17.907,39.918-39.918C512,380.442,512,130.653,512,119.086z M161.965,306.115c-0.198,0-0.402-0.006-0.6-0.012
			l-11.62-0.872l-23.622,44.338h-21.898l15.361-46.601l-34.221-2.566l-4.885,14.823H63.369l8.416-25.533l-8.416-25.533H80.48
			l4.885,14.823l34.221-2.566l-15.361-46.602h21.898l23.622,44.338c3.129-0.236,5.158-0.389,11.62-0.872
			C183.486,272.485,184.009,306.115,161.965,306.115z M426.064,370.848H291.987c-9.857,0-17.847-7.991-17.847-17.847
			s7.991-17.847,17.847-17.847h134.077c9.857,0,17.847,7.991,17.847,17.847C443.912,362.857,435.921,370.848,426.064,370.848z
			 M426.064,307.538H291.987c-9.857,0-17.847-7.991-17.847-17.847s7.991-17.847,17.847-17.847h134.077
			c9.857,0,17.847,7.991,17.847,17.847C443.912,299.547,435.921,307.538,426.064,307.538z M426.064,244.23H291.987
			c-9.857,0-17.847-7.991-17.847-17.847s7.991-17.847,17.847-17.847h134.077c9.857,0,17.847,7.991,17.847,17.847
			C443.912,236.239,435.921,244.23,426.064,244.23z M476.305,146.549c-7.69,0-421.355,0-440.61,0v-27.464h0
			c0-2.329,1.894-4.224,4.223-4.224h432.165c2.329,0,4.223,1.894,4.223,4.224V146.549z"/>
	</g>
</g>
<g>
</g>
<g>
</g>
<g>
</g>
<g>
</g>
<g>
</g>
<g>
</g>
<g>
</g>
<g>
</g>
<g>
</g>
<g>
</g>
<g>
</g>
<g>
</g>
<g>
</g>
<g>
</g>
<g>
</g>
</svg>
