<?xml version="1.0" encoding="utf-8"?>
<!-- Generator: Adobe Illustrator 19.2.1, SVG Export Plug-In . SVG Version: 6.00 Build 0)  -->
<svg width='150' height='150' version="1.1" id="layer" xmlns="http://www.w3.org/2000/svg" xmlns:xlink="http://www.w3.org/1999/xlink" x="0px" y="0px"
	 viewBox="0 0 652 652" style="enable-background:new 0 0 652 652;" xml:space="preserve">
<style type="text/css">
	.st0{fill:#FFE900;}
	.st1{fill:#1D1D1B;}
</style>
<g>
	<path class="st0" d="M291.1,590.7c145.8,0,264.8-118.2,264.8-264.8c0-145.8-118.2-264.8-264.8-264.8
		c-145.8,0-264.8,118.2-264.8,264.8S144.5,590.7,291.1,590.7"/>
	<polyline class="st1" points="542.5,312.5 567.6,305.8 587.8,387.9 626.3,378.7 625.5,356.1 614.6,358.6 599.5,298.2 626.3,291.5 
		619.6,261.4 592.8,268.1 584.4,234.6 555.1,254.7 560.1,275.6 535,282.3 541.7,312.5 	"/>
	<path class="st1" d="M538.3,284.8c-10.1-10.1-24.3-16.8-42.7-16.8c-40.2,0-59.5,31.8-59.5,58.7l0,0c0,26.8,19.3,58.7,59.5,58.7
		c40.2,0,59.5-31.8,59.5-58.7c0-11.7-3.4-23.5-10.1-33.5L538.3,284.8z M521.6,326.7c0,15.9-11.7,27.7-26.8,27.7
		c-14.2,0-26.8-11.7-26.8-27.7l0,0c0-15.9,11.7-27.7,26.8-27.7S521.6,310.8,521.6,326.7 M435.2,326.7c0-26.8-19.3-58.7-59.5-58.7
		c-40.2,0-59.5,31.8-59.5,58.7l0,0c0,26.8,19.3,58.7,59.5,58.7S435.2,353.6,435.2,326.7 M402.6,326.7c0,15.9-11.7,27.7-26.8,27.7
		c-14.2,0-26.8-11.7-26.8-27.7l0,0c0-15.9,11.7-27.7,26.8-27.7C390,299.1,402.6,310.8,402.6,326.7 M283.6,314.2h33.5
		c-5.9-26.8-29.3-46.1-58.7-46.1c-32.7,0-57.8,26-57.8,58.7s26,58.7,58.7,58.7c30.2,0,52-20.1,57.8-45.3h-33.5
		c-3.4,6.7-10.1,15.1-23.5,15.1c-15.9,0-26-11.7-26-27.7c0-7.5,2.5-15.1,7.5-20.1s11.7-8.4,19.3-7.5
		C272.7,298.2,279.4,306.6,283.6,314.2 M165.4,302.4h32.7c-2.5-29.3-27.7-34.4-42.7-34.4c-22.6,0-42.7,14.2-42.7,37.7
		c0,15.1,11.7,24.3,26,28.5c20.9,8.4,29.3,9.2,29.3,16.8c0,5-5.9,8.4-11.7,8.4c-1.7,0-10.9,0-12.6-10.1h-32.7
		c3.4,29.3,28.5,36.9,45.3,36.9c24.3,0,45.3-14.2,45.3-38.5c0-23.5-20.1-29.3-38.5-34.4c-8.4-2.5-16.8-5.9-16.8-10.9
		c0-3.4,2.5-7.5,9.2-7.5C164.6,294.1,165.4,299.9,165.4,302.4"/>
</g>
</svg>
